<svg width="531" height="371" viewBox="0 0 531 371" fill="none" xmlns="http://www.w3.org/2000/svg">
<g filter="url(#filter0_d_566_947)">
<rect width="169.262" height="237.188" rx="19.084" transform="matrix(0.911056 -0.412284 0.433098 0.901347 15 115.143)" fill="#52DA4B"/>
<rect x="4.10428" y="1.49332" width="163.155" height="231.081" rx="16.0305" transform="matrix(0.911056 -0.412284 0.433098 0.901347 14.7183 116.982)" stroke="black" stroke-width="6.10687"/>
</g>
<path d="M136.364 213.436L132.644 205.696L148.292 198.615L133.415 167.652L125.591 171.193L121.872 163.452L129.696 159.912L125.976 152.171L141.624 145.09L163.94 191.533L179.588 184.452L183.307 192.193L136.364 213.436Z" fill="#000001"/>
<path d="M232.72 247.757L231.334 244.872L232.792 244.212L232.099 242.77L233.557 242.11L232.864 240.667L235.78 239.348L235.087 237.905L236.545 237.246L235.852 235.803L231.478 237.782L232.171 239.225L229.255 240.545L228.562 239.102L230.02 238.442L229.327 237L236.617 233.701L237.31 235.143L238.768 234.484L240.154 237.368L238.696 238.028L239.389 239.471L237.931 240.13L238.624 241.573L235.708 242.892L236.401 244.335L242.233 241.696L242.926 243.138L232.72 247.757Z" fill="#000001"/>
<path d="M156.442 94.0546L155.203 91.4744L160.419 89.114L155.459 78.7933L152.851 79.9735L151.612 77.3933L154.22 76.2131L152.98 73.6329L158.196 71.2725L165.635 86.7536L170.85 84.3932L172.09 86.9734L156.442 94.0546Z" fill="#000001"/>
<path d="M126.569 305.383L125.33 302.802L130.545 300.442L125.586 290.121L122.978 291.301L121.739 288.721L124.347 287.541L123.107 284.961L128.323 282.6L135.761 298.082L140.977 295.721L142.217 298.301L126.569 305.383Z" fill="#000001"/>
<path d="M48.498 142.903L47.2582 140.323L52.4742 137.962L47.5151 127.642L44.9071 128.822L43.6673 126.242L46.2753 125.061L45.0355 122.481L50.2515 120.121L57.6902 135.602L62.9061 133.242L64.1459 135.822L48.498 142.903Z" fill="#000001"/>
<g filter="url(#filter1_d_566_947)">
<rect x="177.856" y="45.3591" width="170.148" height="235.889" rx="19.084" fill="#52DA4B"/>
<rect x="180.91" y="48.4126" width="164.041" height="229.782" rx="16.0305" stroke="black" stroke-width="6.10687"/>
</g>
<path d="M230.285 188.831V171.655H238.873V163.067H247.461V154.48H264.636V145.892H273.224V137.304H247.461V145.892H230.285V137.304H238.873V128.716H281.812V137.304H290.4V154.48H281.812V163.067H273.224V171.655H256.049V180.243H290.4V188.831H230.285Z" fill="#000001"/>
<path d="M320.662 254.906V250.105H322.263V248.505H323.863V246.904H325.463V245.304H320.662V246.904H317.462V243.704H328.664V246.904H327.064V248.505H325.463V250.105H323.863V254.906H320.662Z" fill="#000001"/>
<path d="M312.413 84.3676V78.6424H315.275V75.7798H318.138V72.9172H323.863V70.0547H326.726V67.1921H318.138V70.0547H312.413V67.1921H315.275V64.3295H329.588V67.1921H332.451V72.9172H329.588V75.7798H326.726V78.6424H321.001V81.505H332.451V84.3676H312.413Z" fill="#000001"/>
<path d="M193.308 263.644V257.918H196.171V255.056H199.033V252.193H204.759V249.331H207.621V246.468H199.033V249.331H193.308V246.468H196.171V243.605H210.484V246.468H213.346V252.193H210.484V255.056H207.621V257.918H201.896V260.781H213.346V263.644H193.308Z" fill="#000001"/>
<path d="M193.308 84.3676V78.6424H196.171V75.7798H199.033V72.9172H204.759V70.0547H207.621V67.1921H199.033V70.0547H193.308V67.1921H196.171V64.3295H210.484V67.1921H213.346V72.9172H210.484V75.7798H207.621V78.6424H201.896V81.505H213.346V84.3676H193.308Z" fill="#000001"/>
<g filter="url(#filter2_d_566_947)">
<rect width="169.262" height="237.188" rx="19.084" transform="matrix(0.911056 0.412284 -0.433098 0.901347 360.793 43)" fill="#52DA4B"/>
<rect x="1.45941" y="4.01109" width="163.155" height="231.081" rx="16.0305" transform="matrix(0.911056 0.412284 -0.433098 0.901347 362.66 42.794)" stroke="black" stroke-width="6.10687"/>
</g>
<path d="M352.12 195.347L355.839 187.606L348.015 184.066L351.735 176.325L367.383 183.406L363.663 191.147L387.135 201.769L394.574 186.288L371.102 175.666L374.821 167.925L382.645 171.466L386.365 163.725L394.189 167.266L397.908 159.525L374.436 148.904L378.155 141.163L425.099 162.407L421.38 170.147L413.556 166.607L409.836 174.347L402.013 170.807L398.293 178.547L406.117 182.088L402.398 189.828L410.222 193.369L402.783 208.85L394.959 205.309L391.24 213.05L352.12 195.347Z" fill="#000001"/>
<path d="M390.288 297.075L391.527 294.495L388.919 293.314L390.159 290.734L395.375 293.095L394.135 295.675L401.959 299.215L404.439 294.055L396.615 290.514L397.855 287.934L400.463 289.114L401.702 286.534L404.31 287.714L405.55 285.134L397.726 281.594L398.966 279.013L414.614 286.095L413.374 288.675L410.766 287.495L409.526 290.075L406.918 288.895L405.679 291.475L408.287 292.655L407.047 295.235L409.655 296.415L407.175 301.576L404.567 300.396L403.327 302.976L390.288 297.075Z" fill="#000001"/>
<path d="M468.357 134.596L469.597 132.015L466.989 130.835L468.228 128.255L473.444 130.615L472.205 133.196L480.029 136.736L482.508 131.576L474.684 128.035L475.924 125.455L478.532 126.635L479.772 124.055L482.38 125.235L483.62 122.655L475.796 119.114L477.035 116.534L492.683 123.615L491.443 126.196L488.835 125.015L487.596 127.596L484.988 126.415L483.748 128.996L486.356 130.176L485.116 132.756L487.724 133.936L485.245 139.097L482.637 137.916L481.397 140.497L468.357 134.596Z" fill="#000001"/>
<path d="M282.341 248.226L283.581 245.646L280.973 244.466L282.213 241.886L287.429 244.246L286.189 246.826L294.013 250.367L296.493 245.207L288.669 241.666L289.908 239.086L292.516 240.266L293.756 237.686L296.364 238.866L297.604 236.286L289.78 232.745L291.02 230.165L306.668 237.246L305.428 239.826L302.82 238.646L301.58 241.226L298.972 240.046L297.732 242.626L300.34 243.807L299.1 246.387L301.708 247.567L299.229 252.727L296.621 251.547L295.381 254.127L282.341 248.226Z" fill="#000001"/>
<path d="M360.413 85.7472L361.653 83.167L359.045 81.9868L360.285 79.4066L365.501 81.767L364.261 84.3472L372.085 87.8878L374.565 82.7274L366.741 79.1868L367.981 76.6066L370.589 77.7868L371.828 75.2066L374.436 76.3868L375.676 73.8066L367.852 70.266L369.092 67.6858L384.74 74.7671L383.5 77.3472L380.892 76.167L379.652 78.7472L377.044 77.567L375.805 80.1472L378.413 81.3274L377.173 83.9076L379.781 85.0878L377.301 90.2482L374.693 89.068L373.453 91.6482L360.413 85.7472Z" fill="#000001"/>
<g filter="url(#filter3_d_566_947)">
<rect x="4" y="250" width="522.11" height="106.88" rx="18" fill="#B89300" stroke="black" stroke-width="4"/>
<rect x="4" y="237" width="522.11" height="106.88" rx="18" fill="#FFCC00" stroke="black" stroke-width="4"/>
<rect x="15.665" y="245.08" width="495.364" height="5.04" rx="2.52" fill="#FFE168"/>
<path d="M43.5 307.5V303H39V280.5H43.5V276H66V280.5H70.5V303H66V307.5H43.5ZM48 303H61.5V280.5H48V303ZM75 307.5V276H84V280.5H88.5V285H93V289.5H97.5V276H106.5V307.5H97.5V298.5H93V294H88.5V289.5H84V307.5H75ZM111 307.5V276H142.5V280.5H120V289.5H138V294H120V303H142.5V307.5H111ZM196.5 307.5V280.5H187.5V276H214.5V280.5H205.5V307.5H196.5ZM223.5 307.5V303H219V276H228V294H232.5V276H237V294H241.5V276H250.5V303H246V307.5H241.5V303H237V298.5H232.5V303H228V307.5H223.5ZM259.5 307.5V303H255V280.5H259.5V276H282V280.5H286.5V303H282V307.5H259.5ZM264 303H277.5V280.5H264V303ZM340.5 307.5V280.5H331.5V276H358.5V280.5H349.5V307.5H340.5ZM363 307.5V276H390V280.5H394.5V294H385.5V298.5H390V303H394.5V307.5H381V303H376.5V298.5H372V307.5H363ZM372 294H381V289.5H385.5V280.5H372V294ZM399 307.5V276H430.5V280.5H408V289.5H426V294H408V303H430.5V307.5H399ZM435 307.5V276H466.5V280.5H444V289.5H462V294H444V303H466.5V307.5H435ZM471 307.5V276H502.5V280.5H480V289.5H498V294H480V303H502.5V307.5H471Z" fill="black"/>
</g>
<defs>
<filter id="filter0_d_566_947" x="16.2755" y="51.5083" width="254.382" height="281.515" filterUnits="userSpaceOnUse" color-interpolation-filters="sRGB">
<feFlood flood-opacity="0" result="BackgroundImageFix"/>
<feColorMatrix in="SourceAlpha" type="matrix" values="0 0 0 0 0 0 0 0 0 0 0 0 0 0 0 0 0 0 127 0" result="hardAlpha"/>
<feOffset dy="5.12101"/>
<feGaussianBlur stdDeviation="2.5605"/>
<feComposite in2="hardAlpha" operator="out"/>
<feColorMatrix type="matrix" values="0 0 0 0 0 0 0 0 0 0 0 0 0 0 0 0 0 0 0.25 0"/>
<feBlend mode="normal" in2="BackgroundImageFix" result="effect1_dropShadow_566_947"/>
<feBlend mode="normal" in="SourceGraphic" in2="effect1_dropShadow_566_947" result="shape"/>
</filter>
<filter id="filter1_d_566_947" x="172.735" y="45.3591" width="180.39" height="246.131" filterUnits="userSpaceOnUse" color-interpolation-filters="sRGB">
<feFlood flood-opacity="0" result="BackgroundImageFix"/>
<feColorMatrix in="SourceAlpha" type="matrix" values="0 0 0 0 0 0 0 0 0 0 0 0 0 0 0 0 0 0 127 0" result="hardAlpha"/>
<feOffset dy="5.12101"/>
<feGaussianBlur stdDeviation="2.5605"/>
<feComposite in2="hardAlpha" operator="out"/>
<feColorMatrix type="matrix" values="0 0 0 0 0 0 0 0 0 0 0 0 0 0 0 0 0 0 0.25 0"/>
<feBlend mode="normal" in2="BackgroundImageFix" result="effect1_dropShadow_566_947"/>
<feBlend mode="normal" in="SourceGraphic" in2="effect1_dropShadow_566_947" result="shape"/>
</filter>
<filter id="filter2_d_566_947" x="259.343" y="49.1494" width="254.382" height="281.515" filterUnits="userSpaceOnUse" color-interpolation-filters="sRGB">
<feFlood flood-opacity="0" result="BackgroundImageFix"/>
<feColorMatrix in="SourceAlpha" type="matrix" values="0 0 0 0 0 0 0 0 0 0 0 0 0 0 0 0 0 0 127 0" result="hardAlpha"/>
<feOffset dy="5.12101"/>
<feGaussianBlur stdDeviation="2.5605"/>
<feComposite in2="hardAlpha" operator="out"/>
<feColorMatrix type="matrix" values="0 0 0 0 0 0 0 0 0 0 0 0 0 0 0 0 0 0 0.25 0"/>
<feBlend mode="normal" in2="BackgroundImageFix" result="effect1_dropShadow_566_947"/>
<feBlend mode="normal" in="SourceGraphic" in2="effect1_dropShadow_566_947" result="shape"/>
</filter>
<filter id="filter3_d_566_947" x="0" y="235" width="530.11" height="130.88" filterUnits="userSpaceOnUse" color-interpolation-filters="sRGB">
<feFlood flood-opacity="0" result="BackgroundImageFix"/>
<feColorMatrix in="SourceAlpha" type="matrix" values="0 0 0 0 0 0 0 0 0 0 0 0 0 0 0 0 0 0 127 0" result="hardAlpha"/>
<feOffset dy="5"/>
<feGaussianBlur stdDeviation="1"/>
<feComposite in2="hardAlpha" operator="out"/>
<feColorMatrix type="matrix" values="0 0 0 0 0 0 0 0 0 0 0 0 0 0 0 0 0 0 0.45 0"/>
<feBlend mode="normal" in2="BackgroundImageFix" result="effect1_dropShadow_566_947"/>
<feBlend mode="normal" in="SourceGraphic" in2="effect1_dropShadow_566_947" result="shape"/>
</filter>
</defs>
</svg>
