<svg width="600" height="663" viewBox="0 0 600 663" fill="none" xmlns="http://www.w3.org/2000/svg">
<rect y="2.97986" width="600" height="660" fill="#00364C"/>
<line y1="1.5" x2="600" y2="1.5" stroke="#002B3C" stroke-width="3"/>
<line y1="6.7738" x2="600" y2="6.7738" stroke="#002B3C" stroke-width="3"/>
<line y1="12.0472" x2="600" y2="12.0472" stroke="#002B3C" stroke-width="3"/>
<line y1="17.321" x2="600" y2="17.321" stroke="#002B3C" stroke-width="3"/>
<line y1="22.5946" x2="600" y2="22.5946" stroke="#002B3C" stroke-width="3"/>
<line y1="27.8683" x2="600" y2="27.8683" stroke="#002B3C" stroke-width="3"/>
<line y1="33.1421" x2="600" y2="33.1421" stroke="#002B3C" stroke-width="3"/>
<line y1="38.4155" x2="600" y2="38.4155" stroke="#002B3C" stroke-width="3"/>
<line y1="44.4426" x2="600" y2="44.4426" stroke="#002B3C" stroke-width="3"/>
<line y1="49.7162" x2="600" y2="49.7162" stroke="#002B3C" stroke-width="3"/>
<line y1="54.9899" x2="600" y2="54.9899" stroke="#002B3C" stroke-width="3"/>
<line y1="59.5101" x2="600" y2="59.5101" stroke="#002B3C" stroke-width="3"/>
<line y1="65.5371" x2="600" y2="65.5371" stroke="#002B3C" stroke-width="3"/>
<line y1="70.8109" x2="600" y2="70.8109" stroke="#002B3C" stroke-width="3"/>
<line y1="76.0846" x2="600" y2="76.0846" stroke="#002B3C" stroke-width="3"/>
<line y1="81.3582" x2="600" y2="81.3582" stroke="#002B3C" stroke-width="3"/>
<line y1="86.6317" x2="600" y2="86.6317" stroke="#002B3C" stroke-width="3"/>
<line y1="91.9054" x2="600" y2="91.9054" stroke="#002B3C" stroke-width="3"/>
<line y1="97.1792" x2="600" y2="97.1792" stroke="#002B3C" stroke-width="3"/>
<line y1="102.453" x2="600" y2="102.453" stroke="#002B3C" stroke-width="3"/>
<line y1="107.726" x2="600" y2="107.726" stroke="#002B3C" stroke-width="3"/>
<line y1="113.754" x2="600" y2="113.754" stroke="#002B3C" stroke-width="3"/>
<line y1="118.274" x2="600" y2="118.274" stroke="#002B3C" stroke-width="3"/>
<line y1="123.547" x2="600" y2="123.547" stroke="#002B3C" stroke-width="3"/>
<line y1="129.574" x2="600" y2="129.574" stroke="#002B3C" stroke-width="3"/>
<line y1="134.848" x2="600" y2="134.848" stroke="#002B3C" stroke-width="3"/>
<line y1="140.122" x2="600" y2="140.122" stroke="#002B3C" stroke-width="3"/>
<line y1="144.642" x2="600" y2="144.642" stroke="#002B3C" stroke-width="3"/>
<line y1="150.669" x2="600" y2="150.669" stroke="#002B3C" stroke-width="3"/>
<line y1="155.943" x2="600" y2="155.943" stroke="#002B3C" stroke-width="3"/>
<line y1="161.216" x2="600" y2="161.216" stroke="#002B3C" stroke-width="3"/>
<line y1="166.49" x2="600" y2="166.49" stroke="#002B3C" stroke-width="3"/>
<line y1="171.764" x2="600" y2="171.764" stroke="#002B3C" stroke-width="3"/>
<line y1="177.037" x2="600" y2="177.037" stroke="#002B3C" stroke-width="3"/>
<line y1="182.311" x2="600" y2="182.311" stroke="#002B3C" stroke-width="3"/>
<line y1="187.585" x2="600" y2="187.585" stroke="#002B3C" stroke-width="3"/>
<line y1="192.858" x2="600" y2="192.858" stroke="#002B3C" stroke-width="3"/>
<line y1="198.885" x2="600" y2="198.885" stroke="#002B3C" stroke-width="3"/>
<line y1="203.405" x2="600" y2="203.405" stroke="#002B3C" stroke-width="3"/>
<line y1="208.679" x2="600" y2="208.679" stroke="#002B3C" stroke-width="3"/>
<line y1="214.706" x2="600" y2="214.706" stroke="#002B3C" stroke-width="3"/>
<line y1="219.98" x2="600" y2="219.98" stroke="#002B3C" stroke-width="3"/>
<line y1="225.253" x2="600" y2="225.253" stroke="#002B3C" stroke-width="3"/>
<line y1="229.774" x2="600" y2="229.774" stroke="#002B3C" stroke-width="3"/>
<line y1="235.801" x2="600" y2="235.801" stroke="#002B3C" stroke-width="3"/>
<line y1="241.074" x2="600" y2="241.074" stroke="#002B3C" stroke-width="3"/>
<line y1="246.348" x2="600" y2="246.348" stroke="#002B3C" stroke-width="3"/>
<line y1="251.622" x2="600" y2="251.622" stroke="#002B3C" stroke-width="3"/>
<line y1="256.896" x2="600" y2="256.896" stroke="#002B3C" stroke-width="3"/>
<line y1="262.169" x2="600" y2="262.169" stroke="#002B3C" stroke-width="3"/>
<line y1="267.443" x2="600" y2="267.443" stroke="#002B3C" stroke-width="3"/>
<line y1="272.716" x2="600" y2="272.716" stroke="#002B3C" stroke-width="3"/>
<line y1="277.99" x2="600" y2="277.99" stroke="#002B3C" stroke-width="3"/>
<line y1="284.017" x2="600" y2="284.017" stroke="#002B3C" stroke-width="3"/>
<line y1="288.537" x2="600" y2="288.537" stroke="#002B3C" stroke-width="3"/>
<line y1="293.811" x2="600" y2="293.811" stroke="#002B3C" stroke-width="3"/>
<line y1="299.838" x2="600" y2="299.838" stroke="#002B3C" stroke-width="3"/>
<line y1="305.112" x2="600" y2="305.112" stroke="#002B3C" stroke-width="3"/>
<line y1="310.385" x2="600" y2="310.385" stroke="#002B3C" stroke-width="3"/>
<line y1="315.659" x2="600" y2="315.659" stroke="#002B3C" stroke-width="3"/>
<line y1="320.933" x2="600" y2="320.933" stroke="#002B3C" stroke-width="3"/>
<line y1="326.206" x2="600" y2="326.206" stroke="#002B3C" stroke-width="3"/>
<line y1="331.48" x2="600" y2="331.48" stroke="#002B3C" stroke-width="3"/>
<line y1="331.48" x2="600" y2="331.48" stroke="#002B3C" stroke-width="3"/>
<line y1="336.754" x2="600" y2="336.754" stroke="#002B3C" stroke-width="3"/>
<line y1="342.027" x2="600" y2="342.027" stroke="#002B3C" stroke-width="3"/>
<line y1="347.301" x2="600" y2="347.301" stroke="#002B3C" stroke-width="3"/>
<line y1="352.575" x2="600" y2="352.575" stroke="#002B3C" stroke-width="3"/>
<line y1="357.848" x2="600" y2="357.848" stroke="#002B3C" stroke-width="3"/>
<line y1="363.122" x2="600" y2="363.122" stroke="#002B3C" stroke-width="3"/>
<line y1="368.395" x2="600" y2="368.395" stroke="#002B3C" stroke-width="3"/>
<line y1="374.422" x2="600" y2="374.422" stroke="#002B3C" stroke-width="3"/>
<line y1="379.696" x2="600" y2="379.696" stroke="#002B3C" stroke-width="3"/>
<line y1="384.97" x2="600" y2="384.97" stroke="#002B3C" stroke-width="3"/>
<line y1="389.49" x2="600" y2="389.49" stroke="#002B3C" stroke-width="3"/>
<line y1="395.517" x2="600" y2="395.517" stroke="#002B3C" stroke-width="3"/>
<line y1="400.791" x2="600" y2="400.791" stroke="#002B3C" stroke-width="3"/>
<line y1="406.064" x2="600" y2="406.064" stroke="#002B3C" stroke-width="3"/>
<line y1="411.338" x2="600" y2="411.338" stroke="#002B3C" stroke-width="3"/>
<line y1="416.612" x2="600" y2="416.612" stroke="#002B3C" stroke-width="3"/>
<line y1="421.885" x2="600" y2="421.885" stroke="#002B3C" stroke-width="3"/>
<line y1="427.159" x2="600" y2="427.159" stroke="#002B3C" stroke-width="3"/>
<line y1="432.432" x2="600" y2="432.432" stroke="#002B3C" stroke-width="3"/>
<line y1="437.706" x2="600" y2="437.706" stroke="#002B3C" stroke-width="3"/>
<line y1="443.733" x2="600" y2="443.733" stroke="#002B3C" stroke-width="3"/>
<line y1="448.254" x2="600" y2="448.254" stroke="#002B3C" stroke-width="3"/>
<line y1="453.527" x2="600" y2="453.527" stroke="#002B3C" stroke-width="3"/>
<line y1="459.554" x2="600" y2="459.554" stroke="#002B3C" stroke-width="3"/>
<line y1="464.828" x2="600" y2="464.828" stroke="#002B3C" stroke-width="3"/>
<line y1="470.101" x2="600" y2="470.101" stroke="#002B3C" stroke-width="3"/>
<line y1="474.622" x2="600" y2="474.622" stroke="#002B3C" stroke-width="3"/>
<line y1="480.649" x2="600" y2="480.649" stroke="#002B3C" stroke-width="3"/>
<line y1="485.922" x2="600" y2="485.922" stroke="#002B3C" stroke-width="3"/>
<line y1="491.196" x2="600" y2="491.196" stroke="#002B3C" stroke-width="3"/>
<line y1="496.47" x2="600" y2="496.47" stroke="#002B3C" stroke-width="3"/>
<line y1="501.743" x2="600" y2="501.743" stroke="#002B3C" stroke-width="3"/>
<line y1="507.017" x2="600" y2="507.017" stroke="#002B3C" stroke-width="3"/>
<line y1="512.291" x2="600" y2="512.291" stroke="#002B3C" stroke-width="3"/>
<line y1="517.564" x2="600" y2="517.564" stroke="#002B3C" stroke-width="3"/>
<line y1="522.838" x2="600" y2="522.838" stroke="#002B3C" stroke-width="3"/>
<line y1="528.865" x2="600" y2="528.865" stroke="#002B3C" stroke-width="3"/>
<line y1="533.385" x2="600" y2="533.385" stroke="#002B3C" stroke-width="3"/>
<line y1="538.659" x2="600" y2="538.659" stroke="#002B3C" stroke-width="3"/>
<line y1="544.686" x2="600" y2="544.686" stroke="#002B3C" stroke-width="3"/>
<line y1="549.96" x2="600" y2="549.96" stroke="#002B3C" stroke-width="3"/>
<line y1="555.233" x2="600" y2="555.233" stroke="#002B3C" stroke-width="3"/>
<line y1="559.753" x2="600" y2="559.753" stroke="#002B3C" stroke-width="3"/>
<line y1="565.781" x2="600" y2="565.781" stroke="#002B3C" stroke-width="3"/>
<line y1="571.054" x2="600" y2="571.054" stroke="#002B3C" stroke-width="3"/>
<line y1="576.328" x2="600" y2="576.328" stroke="#002B3C" stroke-width="3"/>
<line y1="581.602" x2="600" y2="581.602" stroke="#002B3C" stroke-width="3"/>
<line y1="586.875" x2="600" y2="586.875" stroke="#002B3C" stroke-width="3"/>
<line y1="592.149" x2="600" y2="592.149" stroke="#002B3C" stroke-width="3"/>
<line y1="597.423" x2="600" y2="597.423" stroke="#002B3C" stroke-width="3"/>
<line y1="602.696" x2="600" y2="602.696" stroke="#002B3C" stroke-width="3"/>
<line y1="607.97" x2="600" y2="607.97" stroke="#002B3C" stroke-width="3"/>
<line y1="613.997" x2="600" y2="613.997" stroke="#002B3C" stroke-width="3"/>
<line y1="618.517" x2="600" y2="618.517" stroke="#002B3C" stroke-width="3"/>
<line y1="623.791" x2="600" y2="623.791" stroke="#002B3C" stroke-width="3"/>
<line y1="629.818" x2="600" y2="629.818" stroke="#002B3C" stroke-width="3"/>
<line y1="635.091" x2="600" y2="635.091" stroke="#002B3C" stroke-width="3"/>
<line y1="640.365" x2="600" y2="640.365" stroke="#002B3C" stroke-width="3"/>
<line y1="645.639" x2="600" y2="645.639" stroke="#002B3C" stroke-width="3"/>
<line y1="650.912" x2="600" y2="650.912" stroke="#002B3C" stroke-width="3"/>
<line y1="656.186" x2="600" y2="656.186" stroke="#002B3C" stroke-width="3"/>
<line y1="661.46" x2="600" y2="661.46" stroke="#002B3C" stroke-width="3"/>
<g filter="url(#filter0_d_569_1285)">
<rect width="169.262" height="237.188" rx="19.084" transform="matrix(0.911056 -0.412284 0.433098 0.901347 50 247.123)" fill="#52DA4B"/>
<rect x="4.10428" y="1.49332" width="163.155" height="231.081" rx="16.0305" transform="matrix(0.911056 -0.412284 0.433098 0.901347 49.7183 248.962)" stroke="black" stroke-width="6.10687"/>
</g>
<path d="M171.364 345.416L167.644 337.676L183.292 330.595L168.415 299.632L160.591 303.173L156.872 295.432L164.696 291.892L160.976 284.151L176.624 277.07L198.94 323.513L214.588 316.432L218.307 324.173L171.364 345.416Z" fill="#000001"/>
<path d="M267.72 379.737L266.334 376.852L267.792 376.192L267.099 374.75L268.557 374.09L267.864 372.647L270.78 371.328L270.087 369.885L271.545 369.226L270.852 367.783L266.478 369.762L267.171 371.205L264.255 372.524L263.562 371.082L265.02 370.422L264.327 368.98L271.617 365.681L272.31 367.123L273.768 366.464L275.154 369.348L273.696 370.008L274.389 371.451L272.931 372.11L273.624 373.553L270.708 374.872L271.401 376.315L277.233 373.676L277.926 375.118L267.72 379.737Z" fill="#000001"/>
<path d="M191.442 226.034L190.203 223.454L195.419 221.094L190.459 210.773L187.851 211.953L186.612 209.373L189.22 208.193L187.98 205.613L193.196 203.252L200.635 218.734L205.85 216.373L207.09 218.953L191.442 226.034Z" fill="#000001"/>
<path d="M161.569 437.363L160.33 434.782L165.545 432.422L160.586 422.101L157.978 423.281L156.739 420.701L159.347 419.521L158.107 416.941L163.323 414.58L170.761 430.062L175.977 427.701L177.217 430.281L161.569 437.363Z" fill="#000001"/>
<path d="M83.498 274.883L82.2582 272.303L87.4742 269.942L82.5151 259.622L79.9071 260.802L78.6673 258.222L81.2753 257.041L80.0355 254.461L85.2515 252.101L92.6902 267.582L97.9061 265.222L99.1459 267.802L83.498 274.883Z" fill="#000001"/>
<g filter="url(#filter1_d_569_1285)">
<rect x="212.856" y="177.339" width="170.148" height="235.889" rx="19.084" fill="#52DA4B"/>
<rect x="215.91" y="180.392" width="164.041" height="229.782" rx="16.0305" stroke="black" stroke-width="6.10687"/>
</g>
<path d="M265.285 320.811V303.635H273.873V295.047H282.461V286.459H299.636V277.872H308.224V269.284H282.461V277.872H265.285V269.284H273.873V260.696H316.812V269.284H325.4V286.459H316.812V295.047H308.224V303.635H291.049V312.223H325.4V320.811H265.285Z" fill="#000001"/>
<path d="M355.662 386.886V382.085H357.263V380.484H358.863V378.884H360.463V377.284H355.662V378.884H352.462V375.683H363.664V378.884H362.064V380.484H360.463V382.085H358.863V386.886H355.662Z" fill="#000001"/>
<path d="M347.413 216.348V210.622H350.275V207.76H353.138V204.897H358.863V202.035H361.726V199.172H353.138V202.035H347.413V199.172H350.275V196.309H364.588V199.172H367.451V204.897H364.588V207.76H361.726V210.622H356.001V213.485H367.451V216.348H347.413Z" fill="#000001"/>
<path d="M228.308 395.623V389.898H231.171V387.036H234.033V384.173H239.759V381.31H242.621V378.448H234.033V381.31H228.308V378.448H231.171V375.585H245.484V378.448H248.346V384.173H245.484V387.036H242.621V389.898H236.896V392.761H248.346V395.623H228.308Z" fill="#000001"/>
<path d="M228.308 216.348V210.622H231.171V207.76H234.033V204.897H239.759V202.035H242.621V199.172H234.033V202.035H228.308V199.172H231.171V196.309H245.484V199.172H248.346V204.897H245.484V207.76H242.621V210.622H236.896V213.485H248.346V216.348H228.308Z" fill="#000001"/>
<g filter="url(#filter2_d_569_1285)">
<rect width="169.262" height="237.188" rx="19.084" transform="matrix(0.911056 0.412284 -0.433098 0.901347 395.793 174.98)" fill="#52DA4B"/>
<rect x="1.45941" y="4.01109" width="163.155" height="231.081" rx="16.0305" transform="matrix(0.911056 0.412284 -0.433098 0.901347 397.66 174.774)" stroke="black" stroke-width="6.10687"/>
</g>
<path d="M387.12 327.327L390.839 319.586L383.015 316.046L386.735 308.305L402.383 315.386L398.663 323.127L422.135 333.749L429.574 318.267L406.102 307.646L409.821 299.905L417.645 303.446L421.365 295.705L429.189 299.246L432.908 291.505L409.436 280.883L413.155 273.143L460.099 294.386L456.38 302.127L448.556 298.586L444.836 306.327L437.013 302.786L433.293 310.527L441.117 314.067L437.398 321.808L445.222 325.349L437.783 340.83L429.959 337.289L426.24 345.03L387.12 327.327Z" fill="#000001"/>
<path d="M425.288 429.055L426.527 426.474L423.919 425.294L425.159 422.714L430.375 425.074L429.135 427.655L436.959 431.195L439.439 426.035L431.615 422.494L432.855 419.914L435.463 421.094L436.702 418.514L439.31 419.694L440.55 417.114L432.726 413.574L433.966 410.993L449.614 418.075L448.374 420.655L445.766 419.475L444.526 422.055L441.918 420.875L440.679 423.455L443.287 424.635L442.047 427.215L444.655 428.395L442.175 433.556L439.567 432.375L438.327 434.956L425.288 429.055Z" fill="#000001"/>
<path d="M503.357 266.576L504.597 263.995L501.989 262.815L503.228 260.235L508.444 262.595L507.205 265.176L515.029 268.716L517.508 263.556L509.684 260.015L510.924 257.435L513.532 258.615L514.772 256.035L517.38 257.215L518.62 254.635L510.796 251.094L512.035 248.514L527.683 255.595L526.443 258.176L523.835 256.995L522.596 259.576L519.988 258.395L518.748 260.976L521.356 262.156L520.116 264.736L522.724 265.916L520.245 271.077L517.637 269.896L516.397 272.477L503.357 266.576Z" fill="#000001"/>
<path d="M317.341 380.206L318.581 377.626L315.973 376.446L317.213 373.866L322.429 376.226L321.189 378.806L329.013 382.347L331.493 377.186L323.669 373.646L324.908 371.066L327.516 372.246L328.756 369.666L331.364 370.846L332.604 368.266L324.78 364.725L326.02 362.145L341.668 369.226L340.428 371.806L337.82 370.626L336.58 373.206L333.972 372.026L332.732 374.606L335.34 375.786L334.1 378.367L336.708 379.547L334.229 384.707L331.621 383.527L330.381 386.107L317.341 380.206Z" fill="#000001"/>
<path d="M395.413 217.727L396.653 215.147L394.045 213.967L395.285 211.386L400.501 213.747L399.261 216.327L407.085 219.868L409.565 214.707L401.741 211.167L402.981 208.586L405.589 209.767L406.828 207.186L409.436 208.367L410.676 205.786L402.852 202.246L404.092 199.666L419.74 206.747L418.5 209.327L415.892 208.147L414.652 210.727L412.044 209.547L410.805 212.127L413.413 213.307L412.173 215.887L414.781 217.068L412.301 222.228L409.693 221.048L408.453 223.628L395.413 217.727Z" fill="#000001"/>
<g filter="url(#filter3_d_569_1285)">
<rect x="39" y="381.98" width="522.11" height="106.88" rx="18" fill="#B89300" stroke="black" stroke-width="4"/>
<rect x="39" y="368.98" width="522.11" height="106.88" rx="18" fill="#FFCC00" stroke="black" stroke-width="4"/>
<rect x="50.665" y="377.06" width="495.364" height="5.04" rx="2.52" fill="#FFE168"/>
<path d="M78.5 439.48V434.98H74V412.48H78.5V407.98H101V412.48H105.5V434.98H101V439.48H78.5ZM83 434.98H96.5V412.48H83V434.98ZM110 439.48V407.98H119V412.48H123.5V416.98H128V421.48H132.5V407.98H141.5V439.48H132.5V430.48H128V425.98H123.5V421.48H119V439.48H110ZM146 439.48V407.98H177.5V412.48H155V421.48H173V425.98H155V434.98H177.5V439.48H146ZM231.5 439.48V412.48H222.5V407.98H249.5V412.48H240.5V439.48H231.5ZM258.5 439.48V434.98H254V407.98H263V425.98H267.5V407.98H272V425.98H276.5V407.98H285.5V434.98H281V439.48H276.5V434.98H272V430.48H267.5V434.98H263V439.48H258.5ZM294.5 439.48V434.98H290V412.48H294.5V407.98H317V412.48H321.5V434.98H317V439.48H294.5ZM299 434.98H312.5V412.48H299V434.98ZM375.5 439.48V412.48H366.5V407.98H393.5V412.48H384.5V439.48H375.5ZM398 439.48V407.98H425V412.48H429.5V425.98H420.5V430.48H425V434.98H429.5V439.48H416V434.98H411.5V430.48H407V439.48H398ZM407 425.98H416V421.48H420.5V412.48H407V425.98ZM434 439.48V407.98H465.5V412.48H443V421.48H461V425.98H443V434.98H465.5V439.48H434ZM470 439.48V407.98H501.5V412.48H479V421.48H497V425.98H479V434.98H501.5V439.48H470Z" fill="black"/>
</g>
<defs>
<filter id="filter0_d_569_1285" x="51.2755" y="183.488" width="254.382" height="281.515" filterUnits="userSpaceOnUse" color-interpolation-filters="sRGB">
<feFlood flood-opacity="0" result="BackgroundImageFix"/>
<feColorMatrix in="SourceAlpha" type="matrix" values="0 0 0 0 0 0 0 0 0 0 0 0 0 0 0 0 0 0 127 0" result="hardAlpha"/>
<feOffset dy="5.12101"/>
<feGaussianBlur stdDeviation="2.5605"/>
<feComposite in2="hardAlpha" operator="out"/>
<feColorMatrix type="matrix" values="0 0 0 0 0 0 0 0 0 0 0 0 0 0 0 0 0 0 0.25 0"/>
<feBlend mode="normal" in2="BackgroundImageFix" result="effect1_dropShadow_569_1285"/>
<feBlend mode="normal" in="SourceGraphic" in2="effect1_dropShadow_569_1285" result="shape"/>
</filter>
<filter id="filter1_d_569_1285" x="207.735" y="177.339" width="180.39" height="246.131" filterUnits="userSpaceOnUse" color-interpolation-filters="sRGB">
<feFlood flood-opacity="0" result="BackgroundImageFix"/>
<feColorMatrix in="SourceAlpha" type="matrix" values="0 0 0 0 0 0 0 0 0 0 0 0 0 0 0 0 0 0 127 0" result="hardAlpha"/>
<feOffset dy="5.12101"/>
<feGaussianBlur stdDeviation="2.5605"/>
<feComposite in2="hardAlpha" operator="out"/>
<feColorMatrix type="matrix" values="0 0 0 0 0 0 0 0 0 0 0 0 0 0 0 0 0 0 0.25 0"/>
<feBlend mode="normal" in2="BackgroundImageFix" result="effect1_dropShadow_569_1285"/>
<feBlend mode="normal" in="SourceGraphic" in2="effect1_dropShadow_569_1285" result="shape"/>
</filter>
<filter id="filter2_d_569_1285" x="294.343" y="181.129" width="254.382" height="281.515" filterUnits="userSpaceOnUse" color-interpolation-filters="sRGB">
<feFlood flood-opacity="0" result="BackgroundImageFix"/>
<feColorMatrix in="SourceAlpha" type="matrix" values="0 0 0 0 0 0 0 0 0 0 0 0 0 0 0 0 0 0 127 0" result="hardAlpha"/>
<feOffset dy="5.12101"/>
<feGaussianBlur stdDeviation="2.5605"/>
<feComposite in2="hardAlpha" operator="out"/>
<feColorMatrix type="matrix" values="0 0 0 0 0 0 0 0 0 0 0 0 0 0 0 0 0 0 0.25 0"/>
<feBlend mode="normal" in2="BackgroundImageFix" result="effect1_dropShadow_569_1285"/>
<feBlend mode="normal" in="SourceGraphic" in2="effect1_dropShadow_569_1285" result="shape"/>
</filter>
<filter id="filter3_d_569_1285" x="35" y="366.98" width="530.11" height="130.88" filterUnits="userSpaceOnUse" color-interpolation-filters="sRGB">
<feFlood flood-opacity="0" result="BackgroundImageFix"/>
<feColorMatrix in="SourceAlpha" type="matrix" values="0 0 0 0 0 0 0 0 0 0 0 0 0 0 0 0 0 0 127 0" result="hardAlpha"/>
<feOffset dy="5"/>
<feGaussianBlur stdDeviation="1"/>
<feComposite in2="hardAlpha" operator="out"/>
<feColorMatrix type="matrix" values="0 0 0 0 0 0 0 0 0 0 0 0 0 0 0 0 0 0 0.45 0"/>
<feBlend mode="normal" in2="BackgroundImageFix" result="effect1_dropShadow_569_1285"/>
<feBlend mode="normal" in="SourceGraphic" in2="effect1_dropShadow_569_1285" result="shape"/>
</filter>
</defs>
</svg>
