<svg width="2873" height="2004" viewBox="0 0 2873 2004" fill="none" xmlns="http://www.w3.org/2000/svg">
<g filter="url(#filter0_d_852_1977)">
<rect width="972.297" height="1362.49" rx="109.625" transform="matrix(0.911056 -0.412284 0.433098 0.901347 0 414.413)" fill="#52DA4B"/>
<rect x="23.5764" y="8.57817" width="937.217" height="1327.41" rx="92.085" transform="matrix(0.911056 -0.412284 0.433098 0.901347 -1.61819 424.979)" stroke="black" stroke-width="35.08"/>
</g>
<path d="M696.567 977.82L675.202 933.355L765.089 892.678L679.628 714.82L634.684 735.159L613.319 690.694L658.263 670.356L636.897 625.891L726.784 585.214L854.976 852.001L944.863 811.325L966.228 855.789L696.567 977.82Z" fill="#000001"/>
<path d="M1250.37 1175.59L1242.41 1159.01L1250.78 1155.22L1246.8 1146.94L1255.18 1143.15L1251.19 1134.86L1267.94 1127.28L1263.96 1119L1272.34 1115.21L1268.36 1106.92L1243.23 1118.29L1247.21 1126.58L1230.46 1134.16L1226.48 1125.87L1234.86 1122.08L1230.88 1113.79L1272.75 1094.84L1276.73 1103.13L1285.11 1099.34L1293.07 1115.91L1284.7 1119.7L1288.68 1127.99L1280.3 1131.78L1284.28 1140.06L1267.53 1147.64L1271.51 1155.93L1305.01 1140.77L1309 1149.05L1250.37 1175.59Z" fill="#000001"/>
<path d="M812.445 293.167L805.323 278.345L835.286 264.786L806.799 205.5L791.818 212.28L784.696 197.458L799.677 190.679L792.555 175.857L822.518 162.298L865.248 251.227L895.21 237.668L902.332 252.49L812.445 293.167Z" fill="#000001"/>
<path d="M640.837 1507.11L633.715 1492.29L663.677 1478.73L635.19 1419.44L620.209 1426.22L613.087 1411.4L628.069 1404.62L620.947 1389.8L650.909 1376.24L693.64 1465.17L723.602 1451.61L730.724 1466.43L640.837 1507.11Z" fill="#000001"/>
<path d="M192.373 573.768L185.251 558.947L215.213 545.388L186.726 486.102L171.745 492.881L164.624 478.06L179.605 471.28L172.483 456.458L202.445 442.9L245.176 531.829L275.138 518.27L282.26 533.091L192.373 573.768Z" fill="#000001"/>
<g filter="url(#filter1_d_852_1977)">
<rect x="935.503" y="13.5513" width="977.391" height="1355.03" rx="109.625" fill="#52DA4B"/>
<rect x="953.043" y="31.0913" width="942.311" height="1319.95" rx="92.085" stroke="black" stroke-width="35.08"/>
</g>
<path d="M1236.67 836.342V737.679H1286.01V688.348H1335.34V639.017H1434V589.685H1483.33V540.354H1335.34V589.685H1236.67V540.354H1286.01V491.023H1532.66V540.354H1581.99V639.017H1532.66V688.348H1483.33V737.679H1384.67V787.01H1581.99V836.342H1236.67Z" fill="#000001"/>
<path d="M1755.83 1216.58V1189H1765.02V1179.81H1774.22V1170.62H1783.41V1161.43H1755.83V1170.62H1737.45V1152.23H1801.8V1170.62H1792.6V1179.81H1783.41V1189H1774.22V1216.58H1755.83Z" fill="#000001"/>
<path d="M1708.44 237.51V204.623H1724.89V188.179H1741.33V171.735H1774.22V155.291H1790.66V138.848H1741.33V155.291H1708.44V138.848H1724.89V122.404H1807.1V138.848H1823.55V171.735H1807.1V188.179H1790.66V204.623H1757.77V221.066H1823.55V237.51H1708.44Z" fill="#000001"/>
<path d="M1024.26 1267.33V1234.44H1040.71V1218H1057.15V1201.56H1090.04V1185.11H1106.48V1168.67H1057.15V1185.11H1024.26V1168.67H1040.71V1152.23H1122.92V1168.67H1139.37V1201.56H1122.92V1218H1106.48V1234.44H1073.59V1250.89H1139.37V1267.33H1024.26Z" fill="#000001"/>
<path d="M1024.26 237.51V204.623H1040.71V188.179H1057.15V171.735H1090.04V155.291H1106.48V138.848H1057.15V155.291H1024.26V138.848H1040.71V122.404H1122.92V138.848H1139.37V171.735H1122.92V188.179H1106.48V204.623H1073.59V221.066H1139.37V237.51H1024.26Z" fill="#000001"/>
<g filter="url(#filter2_d_852_1977)">
<rect width="972.297" height="1362.49" rx="109.625" transform="matrix(0.911056 0.412284 -0.433098 0.901347 1986.36 0)" fill="#52DA4B"/>
<rect x="8.38338" y="23.0411" width="937.217" height="1327.41" rx="92.085" transform="matrix(0.911056 0.412284 -0.433098 0.901347 1997.08 -1.18326)" stroke="black" stroke-width="35.08"/>
</g>
<path d="M1937.12 873.91L1958.49 829.445L1913.55 809.107L1934.91 764.642L2024.8 805.319L2003.43 849.783L2138.26 910.799L2180.99 821.87L2046.16 760.854L2067.53 716.39L2112.47 736.728L2133.84 692.264L2178.78 712.602L2200.15 668.138L2065.32 607.122L2086.68 562.658L2356.34 684.688L2334.98 729.153L2290.03 708.814L2268.67 753.279L2223.73 732.941L2202.36 777.405L2247.3 797.744L2225.94 842.208L2270.88 862.547L2228.15 951.476L2183.21 931.137L2161.84 975.602L1937.12 873.91Z" fill="#000001"/>
<path d="M2155.83 1459.39L2162.96 1444.57L2147.97 1437.79L2155.1 1422.96L2185.06 1436.52L2177.94 1451.35L2222.88 1471.68L2237.12 1442.04L2192.18 1421.7L2199.3 1406.88L2214.28 1413.66L2221.41 1398.84L2236.39 1405.62L2243.51 1390.8L2198.56 1370.46L2205.69 1355.64L2295.57 1396.31L2288.45 1411.14L2273.47 1404.36L2266.35 1419.18L2251.37 1412.4L2244.25 1427.22L2259.23 1434L2252.11 1448.82L2267.09 1455.6L2252.84 1485.24L2237.86 1478.46L2230.74 1493.28L2155.83 1459.39Z" fill="#000001"/>
<path d="M2604.29 526.051L2611.41 511.229L2596.43 504.45L2603.55 489.628L2633.51 503.187L2626.39 518.008L2671.34 538.347L2685.58 508.704L2640.64 488.365L2647.76 473.544L2662.74 480.323L2669.86 465.502L2684.84 472.281L2691.96 457.46L2647.02 437.121L2654.14 422.3L2744.03 462.977L2736.91 477.798L2721.93 471.019L2714.8 485.84L2699.82 479.061L2692.7 493.882L2707.68 500.662L2700.56 515.483L2715.54 522.263L2701.3 551.906L2686.32 545.126L2679.2 559.948L2604.29 526.051Z" fill="#000001"/>
<path d="M1535.75 1178.78L1542.88 1163.96L1527.89 1157.18L1535.02 1142.36L1564.98 1155.92L1557.86 1170.74L1602.8 1191.08L1617.04 1161.44L1572.1 1141.1L1579.22 1126.28L1594.2 1133.06L1601.33 1118.24L1616.31 1125.01L1623.43 1110.19L1578.48 1089.85L1585.61 1075.03L1675.49 1115.71L1668.37 1130.53L1653.39 1123.75L1646.27 1138.57L1631.29 1131.79L1624.17 1146.62L1639.15 1153.4L1632.03 1168.22L1647.01 1175L1632.76 1204.64L1617.78 1197.86L1610.66 1212.68L1535.75 1178.78Z" fill="#000001"/>
<path d="M1984.23 245.447L1991.35 230.625L1976.37 223.846L1983.49 209.024L2013.45 222.583L2006.33 237.405L2051.27 257.743L2065.52 228.1L2020.57 207.762L2027.69 192.94L2042.68 199.72L2049.8 184.898L2064.78 191.678L2071.9 176.856L2026.96 156.518L2034.08 141.696L2123.97 182.373L2116.84 197.195L2101.86 190.415L2094.74 205.237L2079.76 198.457L2072.64 213.279L2087.62 220.058L2080.5 234.88L2095.48 241.659L2081.24 271.302L2066.25 264.523L2059.13 279.344L1984.23 245.447Z" fill="#000001"/>
<g filter="url(#filter3_d_852_1977)">
<rect x="289.41" y="1495.28" width="2289.45" height="468.669" rx="78.93" fill="#B89300" stroke="black" stroke-width="17.54"/>
<rect x="289.41" y="1438.28" width="2289.45" height="468.669" rx="78.93" fill="#FFCC00" stroke="black" stroke-width="17.54"/>
<rect x="340.561" y="1473.71" width="2172.17" height="22.1004" rx="11.0502" fill="#FFE168"/>
<path d="M485.127 1767.06V1747.33H465.395V1648.66H485.127V1628.93H583.79V1648.66H603.522V1747.33H583.79V1767.06H485.127ZM504.86 1747.33H564.057V1648.66H504.86V1747.33ZM623.255 1767.06V1628.93H662.72V1648.66H682.452V1668.4H702.185V1688.13H721.917V1628.93H761.382V1767.06H721.917V1727.59H702.185V1707.86H682.452V1688.13H662.72V1767.06H623.255ZM781.115 1767.06V1628.93H919.242V1648.66H820.58V1688.13H899.51V1707.86H820.58V1747.33H919.242V1767.06H781.115ZM1156.03 1767.06V1648.66H1116.57V1628.93H1234.96V1648.66H1195.5V1767.06H1156.03ZM1274.43 1767.06V1747.33H1254.69V1628.93H1294.16V1707.86H1313.89V1628.93H1333.62V1707.86H1353.36V1628.93H1392.82V1747.33H1373.09V1767.06H1353.36V1747.33H1333.62V1727.59H1313.89V1747.33H1294.16V1767.06H1274.43ZM1432.29 1767.06V1747.33H1412.55V1648.66H1432.29V1628.93H1530.95V1648.66H1550.68V1747.33H1530.95V1767.06H1432.29ZM1452.02 1747.33H1511.22V1648.66H1452.02V1747.33ZM1787.47 1767.06V1648.66H1748.01V1628.93H1866.4V1648.66H1826.94V1767.06H1787.47ZM1886.13 1767.06V1628.93H1925.6V1688.13H1984.8V1628.93H2024.26V1767.06H1984.8V1707.86H1925.6V1767.06H1886.13ZM2043.99 1767.06V1628.93H2162.39V1648.66H2182.12V1707.86H2142.66V1727.59H2162.39V1747.33H2182.12V1767.06H2122.92V1747.33H2103.19V1727.59H2083.46V1767.06H2043.99ZM2083.46 1707.86H2122.92V1688.13H2142.66V1648.66H2083.46V1707.86ZM2201.85 1767.06V1628.93H2339.98V1648.66H2241.32V1688.13H2320.25V1707.86H2241.32V1747.33H2339.98V1767.06H2201.85ZM2359.71 1767.06V1628.93H2497.84V1648.66H2399.18V1688.13H2478.11V1707.86H2399.18V1747.33H2497.84V1767.06H2359.71Z" fill="black"/>
</g>
<defs>
<filter id="filter0_d_852_1977" x="7.32435" y="48.8745" width="1461.26" height="1617.12" filterUnits="userSpaceOnUse" color-interpolation-filters="sRGB">
<feFlood flood-opacity="0" result="BackgroundImageFix"/>
<feColorMatrix in="SourceAlpha" type="matrix" values="0 0 0 0 0 0 0 0 0 0 0 0 0 0 0 0 0 0 127 0" result="hardAlpha"/>
<feOffset dy="29.4169"/>
<feGaussianBlur stdDeviation="14.7084"/>
<feComposite in2="hardAlpha" operator="out"/>
<feColorMatrix type="matrix" values="0 0 0 0 0 0 0 0 0 0 0 0 0 0 0 0 0 0 0.25 0"/>
<feBlend mode="normal" in2="BackgroundImageFix" result="effect1_dropShadow_852_1977"/>
<feBlend mode="normal" in="SourceGraphic" in2="effect1_dropShadow_852_1977" result="shape"/>
</filter>
<filter id="filter1_d_852_1977" x="906.086" y="13.5513" width="1036.23" height="1413.86" filterUnits="userSpaceOnUse" color-interpolation-filters="sRGB">
<feFlood flood-opacity="0" result="BackgroundImageFix"/>
<feColorMatrix in="SourceAlpha" type="matrix" values="0 0 0 0 0 0 0 0 0 0 0 0 0 0 0 0 0 0 127 0" result="hardAlpha"/>
<feOffset dy="29.4169"/>
<feGaussianBlur stdDeviation="14.7084"/>
<feComposite in2="hardAlpha" operator="out"/>
<feColorMatrix type="matrix" values="0 0 0 0 0 0 0 0 0 0 0 0 0 0 0 0 0 0 0.25 0"/>
<feBlend mode="normal" in2="BackgroundImageFix" result="effect1_dropShadow_852_1977"/>
<feBlend mode="normal" in="SourceGraphic" in2="effect1_dropShadow_852_1977" result="shape"/>
</filter>
<filter id="filter2_d_852_1977" x="1403.59" y="35.3242" width="1461.26" height="1617.12" filterUnits="userSpaceOnUse" color-interpolation-filters="sRGB">
<feFlood flood-opacity="0" result="BackgroundImageFix"/>
<feColorMatrix in="SourceAlpha" type="matrix" values="0 0 0 0 0 0 0 0 0 0 0 0 0 0 0 0 0 0 127 0" result="hardAlpha"/>
<feOffset dy="29.4169"/>
<feGaussianBlur stdDeviation="14.7084"/>
<feComposite in2="hardAlpha" operator="out"/>
<feColorMatrix type="matrix" values="0 0 0 0 0 0 0 0 0 0 0 0 0 0 0 0 0 0 0.25 0"/>
<feBlend mode="normal" in2="BackgroundImageFix" result="effect1_dropShadow_852_1977"/>
<feBlend mode="normal" in="SourceGraphic" in2="effect1_dropShadow_852_1977" result="shape"/>
</filter>
<filter id="filter3_d_852_1977" x="271.87" y="1429.51" width="2324.53" height="573.909" filterUnits="userSpaceOnUse" color-interpolation-filters="sRGB">
<feFlood flood-opacity="0" result="BackgroundImageFix"/>
<feColorMatrix in="SourceAlpha" type="matrix" values="0 0 0 0 0 0 0 0 0 0 0 0 0 0 0 0 0 0 127 0" result="hardAlpha"/>
<feOffset dy="21.925"/>
<feGaussianBlur stdDeviation="4.385"/>
<feComposite in2="hardAlpha" operator="out"/>
<feColorMatrix type="matrix" values="0 0 0 0 0 0 0 0 0 0 0 0 0 0 0 0 0 0 0.45 0"/>
<feBlend mode="normal" in2="BackgroundImageFix" result="effect1_dropShadow_852_1977"/>
<feBlend mode="normal" in="SourceGraphic" in2="effect1_dropShadow_852_1977" result="shape"/>
</filter>
</defs>
</svg>
